<?xml version="1.0" standalone="no"?>
<!DOCTYPE svg PUBLIC "-//W3C//DTD SVG 20010904//EN"
 "http://www.w3.org/TR/2001/REC-SVG-20010904/DTD/svg10.dtd">
<svg version="1.0" xmlns="http://www.w3.org/2000/svg"
 width="758.000000pt" height="758.000000pt" viewBox="0 0 758.000000 758.000000"
 preserveAspectRatio="xMidYMid meet">
<metadata>
Created by potrace 1.14, written by Peter Selinger 2001-2017
</metadata>
<g transform="translate(0.000000,758.000000) scale(0.100000,-0.100000)"
fill="#000000" stroke="none">
<path d="M1671 7557 c-25 -66 -140 -374 -145 -387 -5 -12 4 -19 31 -29 21 -7
47 -16 58 -21 25 -11 540 -199 575 -210 14 -5 61 -22 105 -38 44 -16 139 -51
210 -76 72 -26 137 -50 145 -53 8 -4 17 -7 20 -8 3 -1 12 -5 20 -8 8 -4 49
-18 90 -32 41 -15 98 -36 127 -47 l52 -21 -21 -51 c-11 -28 -21 -55 -23 -61
-1 -5 -5 -17 -8 -25 -11 -26 -143 -390 -182 -500 -20 -58 -43 -118 -50 -135
-6 -16 -17 -43 -23 -60 -6 -16 -27 -75 -48 -130 -20 -55 -37 -104 -39 -110 -1
-5 -5 -17 -8 -25 -11 -27 -118 -315 -122 -330 -5 -17 -49 -138 -58 -160 -6
-15 -36 -96 -91 -250 -32 -88 -65 -177 -76 -205 -4 -11 -13 -33 -18 -50 -22
-61 -94 -261 -107 -295 -8 -19 -67 -179 -131 -355 -64 -176 -120 -327 -125
-335 -7 -13 -8 -13 -13 0 -3 8 -19 56 -36 105 -18 50 -33 95 -34 100 -2 6 -6
18 -10 27 -4 9 -9 22 -10 30 -2 7 -6 20 -9 28 -8 16 -127 359 -131 375 -2 6
-6 17 -9 25 -3 8 -13 35 -21 60 -8 25 -46 135 -84 245 -39 110 -82 236 -97
280 -14 44 -30 89 -35 100 -5 11 -30 83 -56 160 -26 77 -51 146 -57 153 -5 6
-7 12 -4 12 4 0 -4 28 -17 63 -13 34 -45 125 -71 202 -26 77 -53 154 -60 170
-7 17 -18 46 -23 65 -5 19 -38 114 -72 210 -34 96 -64 184 -67 195 -3 11 -11
34 -19 52 -8 17 -14 35 -14 39 0 5 -7 26 -15 49 l-16 40 -377 -1 c-207 0 -376
-4 -376 -8 3 -11 34 -110 41 -126 3 -8 7 -19 9 -25 2 -5 34 -95 72 -200 38
-104 79 -219 91 -255 12 -36 26 -74 31 -85 5 -11 41 -110 80 -220 39 -110 80
-222 90 -250 10 -27 33 -90 50 -140 18 -49 36 -99 40 -110 13 -30 51 -138 55
-155 2 -8 12 -36 24 -62 11 -27 18 -48 14 -48 -3 0 -1 -6 4 -12 6 -7 13 -22
16 -33 3 -11 23 -69 45 -130 22 -60 65 -182 96 -270 31 -88 61 -168 66 -177 6
-10 10 -25 10 -33 0 -8 4 -23 9 -33 13 -22 100 -261 106 -287 3 -11 9 -29 14
-40 5 -11 21 -54 36 -95 15 -41 47 -131 72 -200 65 -182 88 -246 117 -330 14
-41 30 -84 35 -95 5 -11 28 -74 51 -140 23 -66 51 -145 63 -175 11 -30 21 -63
21 -75 -1 -11 -22 -78 -48 -150 -26 -71 -59 -161 -72 -200 -14 -38 -30 -79
-34 -90 -5 -11 -20 -51 -34 -90 -50 -144 -107 -301 -116 -320 -5 -11 -23 -60
-40 -110 -18 -49 -41 -115 -51 -145 -26 -72 -27 -74 -26 -80 0 -3 -6 -16 -13
-30 -8 -14 -15 -29 -16 -35 -1 -5 -18 -53 -37 -105 -20 -52 -65 -178 -102
-280 -37 -102 -87 -239 -112 -305 -25 -66 -46 -124 -47 -130 -2 -5 -6 -18 -10
-27 -4 -9 -9 -22 -10 -30 -2 -7 -6 -20 -9 -28 -37 -91 -73 -200 -68 -207 3 -5
22 -15 41 -22 19 -7 44 -17 55 -21 37 -16 270 -102 280 -104 6 -1 16 -5 23
-10 7 -4 15 -6 16 -5 2 2 27 69 56 149 28 80 56 154 60 165 5 11 41 110 80
220 40 110 76 209 81 220 5 11 23 58 39 105 99 273 121 336 123 345 1 6 4 12
7 15 3 3 11 21 17 40 6 19 28 80 48 135 20 55 46 127 57 160 11 33 25 66 31
73 5 6 6 12 2 12 -4 0 -3 6 2 13 5 6 23 51 39 100 16 48 31 87 34 87 6 0 20
-34 50 -120 12 -36 26 -74 31 -85 5 -11 29 -78 55 -150 25 -71 68 -193 96
-270 27 -77 51 -144 52 -150 2 -5 9 -23 15 -40 7 -16 14 -34 15 -40 2 -5 8
-23 14 -38 7 -16 12 -31 12 -34 0 -3 10 -32 21 -65 l22 -58 381 2 381 3 25 75
c14 41 28 80 31 85 6 10 17 49 19 70 1 6 5 15 10 20 6 8 27 64 37 100 4 17
123 359 130 375 3 8 7 20 9 25 1 6 30 89 64 185 34 96 63 180 64 185 1 6 7 24
13 40 21 56 26 70 29 80 8 29 112 324 117 332 3 5 8 20 11 34 3 13 12 42 20
64 20 55 143 406 167 480 11 33 24 69 29 80 5 11 27 76 50 145 23 69 45 132
49 140 4 8 20 56 36 105 15 50 31 95 35 100 3 6 30 83 60 172 30 89 56 161 57
160 1 -2 4 -165 7 -362 5 -368 7 -409 21 -575 5 -52 9 -107 9 -122 1 -16 5
-28 9 -28 5 0 6 -4 3 -8 -4 -7 8 -104 29 -250 9 -57 50 -260 59 -290 3 -9 7
-28 10 -42 4 -20 28 -106 50 -175 1 -5 6 -23 11 -40 14 -55 118 -309 155 -380
55 -106 91 -168 106 -186 8 -8 14 -19 14 -22 0 -4 6 -15 14 -24 8 -10 36 -46
61 -80 86 -116 198 -222 361 -340 39 -29 190 -107 249 -128 28 -10 56 -23 63
-28 6 -5 12 -7 12 -4 0 3 21 -2 48 -10 246 -77 608 -91 878 -33 54 12 104 22
109 24 6 1 15 4 20 8 6 3 30 11 55 18 53 14 192 76 255 113 45 27 142 93 170
117 39 32 214 208 240 240 96 121 266 422 301 535 2 6 20 55 40 110 41 113 64
193 100 345 28 121 34 148 38 175 2 11 4 20 6 20 1 0 3 14 5 30 1 17 5 44 8
60 7 32 16 98 22 154 3 19 6 48 9 65 5 31 15 123 21 201 27 298 27 1046 1
1240 -2 17 -7 62 -10 100 -7 79 -15 148 -22 185 -2 14 -6 45 -9 70 -3 25 -10
65 -15 90 -5 25 -12 62 -15 82 -2 21 -10 59 -16 85 -6 27 -13 59 -15 73 -13
66 -85 318 -105 365 -6 17 -13 36 -15 44 -3 13 -32 85 -59 146 -165 371 -391
647 -658 802 -136 80 -293 145 -401 168 -29 5 -125 23 -161 30 -132 22 -435
23 -545 0 -13 -2 -42 -7 -65 -10 -50 -7 -171 -40 -250 -68 -67 -23 -258 -117
-263 -129 -2 -5 -10 -8 -18 -8 -8 0 -14 -3 -14 -8 0 -4 -15 -15 -33 -25 -18
-10 -47 -31 -65 -48 -38 -35 -39 -31 -11 47 11 32 22 64 23 69 3 12 14 41 27
73 5 12 5 22 1 23 -34 4 -736 3 -742 -1 -4 -3 -65 -180 -134 -395 -143 -437
-141 -432 -152 -460 -4 -11 -8 -22 -9 -25 -1 -3 -14 -43 -29 -90 -15 -47 -29
-89 -30 -95 -1 -5 -4 -14 -7 -20 -4 -5 -10 -23 -14 -40 -10 -34 -10 -35 -18
-55 -7 -19 -313 -959 -315 -970 -1 -3 -19 -54 -40 -115 -22 -60 -40 -114 -41
-120 -2 -14 -220 -684 -234 -720 -7 -16 -12 -32 -13 -35 -2 -14 -67 -216 -72
-225 -4 -5 -7 -14 -8 -20 -1 -5 -21 -68 -45 -140 -23 -71 -44 -134 -45 -140
-1 -5 -21 -66 -44 -135 -23 -69 -43 -129 -44 -135 -1 -5 -7 -23 -13 -40 -6
-16 -39 -115 -73 -220 -34 -104 -64 -197 -67 -205 -4 -8 -7 -17 -8 -20 0 -3
-11 -36 -24 -75 -13 -38 -24 -74 -25 -80 -5 -24 -29 -91 -36 -98 -3 -4 -12 12
-19 35 -6 24 -16 52 -21 63 -9 20 -61 170 -106 305 -14 41 -29 84 -34 95 -5
11 -23 62 -40 113 -17 51 -54 157 -81 235 -28 78 -52 147 -53 152 -2 6 -6 17
-9 25 -4 8 -18 50 -32 92 l-24 77 50 138 c28 76 54 145 57 153 3 8 6 17 7 20
1 3 4 12 8 20 3 8 26 74 52 145 25 72 51 141 57 155 6 14 16 43 24 65 7 22 65
182 129 355 64 173 118 323 120 332 2 9 8 25 13 35 6 10 11 21 11 25 2 12 -21
-52 426 1173 168 462 307 847 310 855 2 8 33 96 70 195 37 99 71 196 77 215 6
19 13 40 16 45 9 15 41 108 42 121 0 10 -62 37 -114 49 -11 3 -24 9 -30 15 -5
5 -19 10 -30 10 -12 0 -30 7 -40 15 -10 8 -23 12 -28 9 -5 -3 -14 -1 -21 4
-10 8 -141 59 -172 66 -5 2 -17 6 -25 9 -8 3 -73 27 -145 52 -71 26 -139 51
-150 56 -11 4 -47 18 -80 30 -33 11 -67 23 -75 26 -8 4 -17 7 -20 7 -3 1 -25
9 -50 18 -137 51 -402 148 -445 163 -27 9 -63 22 -80 29 -16 7 -52 21 -80 30
-27 10 -98 35 -158 57 l-108 39 -8 -23z m4151 -1727 c64 -10 69 -11 123 -25
154 -40 330 -179 439 -345 43 -65 106 -188 106 -205 0 -8 5 -15 10 -15 6 0 10
-7 10 -15 0 -8 4 -23 10 -33 41 -74 132 -420 154 -587 3 -22 8 -51 10 -64 3
-13 8 -49 11 -80 4 -31 8 -69 10 -86 8 -75 18 -173 20 -210 28 -463 25 -951
-9 -1325 -11 -120 -14 -143 -21 -180 -4 -19 -8 -55 -10 -80 -2 -25 -4 -46 -4
-47 -1 -2 -2 -6 -3 -10 -2 -11 -18 -93 -24 -123 -7 -38 -27 -134 -31 -145 -1
-5 -5 -23 -9 -40 -3 -16 -8 -37 -11 -45 -3 -8 -7 -21 -9 -29 -7 -35 -60 -185
-92 -261 -107 -254 -255 -428 -442 -520 -36 -18 -73 -36 -82 -41 -10 -5 -27
-9 -39 -9 -11 0 -28 -4 -38 -9 -21 -12 -147 -25 -221 -23 -221 6 -402 86 -553
246 -84 88 -204 285 -242 396 -1 3 -5 13 -9 22 -4 9 -9 22 -10 30 -2 7 -6 20
-9 28 -37 90 -107 377 -123 506 -2 23 -7 52 -9 65 -11 58 -27 192 -40 349 -26
301 -26 1016 0 1275 2 22 7 72 10 110 8 84 10 100 30 240 21 143 24 162 35
210 5 22 16 74 25 115 9 41 19 82 22 90 3 8 7 21 9 29 9 48 74 221 112 301 53
112 97 183 166 265 62 74 61 72 116 117 134 108 281 159 471 166 43 1 106 -2
141 -8z"/>
<path d="M5648 4075 c-2 -2 -19 -5 -38 -8 -53 -9 -61 -11 -113 -35 -127 -57
-236 -188 -273 -325 -19 -72 -15 -226 7 -293 70 -213 251 -339 479 -335 48 1
70 4 115 15 80 19 173 73 231 133 33 34 104 135 104 147 0 3 5 17 11 33 13 31
15 39 23 103 14 111 2 182 -49 286 -58 119 -181 223 -308 261 -42 12 -181 26
-189 18z"/>
</g>
</svg>
