<?xml version="1.0" encoding="UTF-8" standalone="no"?>
<!-- Created with Inkscape (http://www.inkscape.org/) -->

<svg
   xmlns:dc="http://purl.org/dc/elements/1.1/"
   xmlns:cc="http://creativecommons.org/ns#"
   xmlns:rdf="http://www.w3.org/1999/02/22-rdf-syntax-ns#"
   xmlns:svg="http://www.w3.org/2000/svg"
   xmlns="http://www.w3.org/2000/svg"
   xmlns:sodipodi="http://sodipodi.sourceforge.net/DTD/sodipodi-0.dtd"
   xmlns:inkscape="http://www.inkscape.org/namespaces/inkscape"
   width="5.833333in"
   height="5.8333325in"
   viewBox="0 0 148.16666 148.16663"
   version="1.1"
   id="svg8"
   inkscape:version="0.92.5 (2060ec1f9f, 2020-04-08)"
   sodipodi:docname="logo.svg">
  <defs
     id="defs2" />
  <sodipodi:namedview
     id="base"
     pagecolor="#ffffff"
     bordercolor="#666666"
     borderopacity="1.0"
     inkscape:pageopacity="0.0"
     inkscape:pageshadow="2"
     inkscape:zoom="0.7"
     inkscape:cx="25.811545"
     inkscape:cy="283.7528"
     inkscape:document-units="mm"
     inkscape:current-layer="g4764"
     showgrid="true"
     inkscape:window-width="1920"
     inkscape:window-height="1051"
     inkscape:window-x="1920"
     inkscape:window-y="0"
     inkscape:window-maximized="1"
     inkscape:pagecheckerboard="false"
     borderlayer="false"
     units="in">
    <inkscape:grid
       type="xygrid"
       id="grid3713"
       originx="169.33333"
       originy="-52.916677" />
  </sodipodi:namedview>
  <metadata
     id="metadata5">
    <rdf:RDF>
      <cc:Work
         rdf:about="">
        <dc:format>image/svg+xml</dc:format>
        <dc:type
           rdf:resource="http://purl.org/dc/dcmitype/StillImage" />
        <dc:title />
      </cc:Work>
    </rdf:RDF>
  </metadata>
  <g
     transform="translate(169.33334,-95.916623)"
     id="g4766"
     inkscape:groupmode="layer"
     inkscape:label="Layer 1 copy">
    <g
       transform="matrix(4.0680403,0,0,4.0680403,214.69225,-305.86803)"
       id="g4764">
      <rect
         style="opacity:1;fill:#bb0000;fill-opacity:1;stroke-width:0.09342077"
         id="rect4773"
         width="36.422123"
         height="36.422119"
         x="-94.400635"
         y="98.766144"
         ry="0" />
      <g
         id="g4813"
         transform="matrix(1.3757794,0,0,1.3641558,22.421882,-36.304482)">
        <path
           id="path4752"
           style="font-style:normal;font-variant:normal;font-weight:normal;font-stretch:normal;font-size:10.58333302px;line-height:1.25;font-family:'Bitstream Vera Sans Mono';-inkscape-font-specification:'Bitstream Vera Sans Mono, Normal';font-variant-ligatures:normal;font-variant-caps:normal;font-variant-numeric:normal;font-feature-settings:normal;text-align:start;letter-spacing:0px;word-spacing:0px;writing-mode:lr-tb;text-anchor:start;opacity:1;fill:#ffffff;fill-opacity:1;stroke:none;stroke-width:0.61760867"
           d="m -67.110348,112.70889 q 0,-0.66344 0.458381,-1.14596 0.470444,-0.4825 1.121828,-0.4825 0.67551,0 1.158017,0.4825 0.482508,0.48252 0.482508,1.14596 0,0.67552 -0.482508,1.14596 -0.470444,0.47043 -1.158017,0.47043 -0.675509,0 -1.133889,-0.45838 -0.44632,-0.45838 -0.44632,-1.15801 z m 1.604334,-7.35822 q -1.700835,0 -2.545222,1.83352 -0.832325,1.83352 -0.832325,5.58502 0,3.73943 0.832325,5.57295 0.844387,1.83352 2.545222,1.83352 1.712901,0 2.545224,-1.83352 0.844387,-1.83352 0.844387,-5.57295 0,-3.7515 -0.844387,-5.58502 -0.832323,-1.83352 -2.545224,-1.83352 z m 0,-1.93002 q 2.882979,0 4.354623,2.36426 1.483711,2.36429 1.483711,6.9843 0,4.60794 -1.483711,6.97223 -1.471644,2.36426 -4.354623,2.36426 -2.882976,0 -4.354623,-2.36426 -1.471645,-2.36429 -1.471645,-6.97223 0,-4.62001 1.471645,-6.9843 1.471647,-2.36426 4.354623,-2.36426 z"
           inkscape:connector-curvature="0" />
        <path
           id="path4754"
           style="font-style:normal;font-variant:normal;font-weight:normal;font-stretch:normal;font-size:10.58333302px;line-height:1.25;font-family:'Bitstream Vera Sans Mono';-inkscape-font-specification:'Bitstream Vera Sans Mono, Normal';font-variant-ligatures:normal;font-variant-caps:normal;font-variant-numeric:normal;font-feature-settings:normal;text-align:start;letter-spacing:0px;word-spacing:0px;writing-mode:lr-tb;text-anchor:start;fill:#000000;fill-opacity:1;stroke:none;stroke-width:0.61760867"
           d="m -79.087991,101.07837 4.669122,1.70458 -3.680949,10.07937 -3.162157,-9.1159 h -2.470434 l 4.446783,12.37688 -2.791592,7.68306 1.383444,0.51879 2.198688,-6.02786 1.235215,3.4586 h 2.470437 l 6.250199,-18.00947 h -2.445731 l -4.990277,15.24259 -1.358741,-3.9033 4.792644,-13.19212 -6.02786,-2.198671 z"
           inkscape:connector-curvature="0" />
      </g>
      <flowRoot
         xml:space="preserve"
         id="flowRoot4762"
         style="font-style:normal;font-weight:normal;font-size:40px;line-height:1.25;font-family:sans-serif;letter-spacing:0px;word-spacing:0px;fill:#000000;fill-opacity:1;stroke:none"
         transform="scale(0.26458333)"><flowRegion
           id="flowRegion4758"><rect
             id="rect4756"
             width="280"
             height="60"
             x="40"
             y="402.51968" /></flowRegion><flowPara
           id="flowPara4760" /></flowRoot>    </g>
  </g>
</svg>
